<svg id="Capa_1" enable-background="new 0 0 512 512" height="512" viewBox="0 0 512 512" width="512" xmlns="http://www.w3.org/2000/svg"><g><g><g><g><path d="m384.157 512h-10.811c-5.762 0-10.433-4.671-10.433-10.433v-24.854h31.678v24.854c-.001 5.762-4.672 10.433-10.434 10.433z" fill="#90bac4"/></g><g><path d="m138.654 512h-10.811c-5.762 0-10.433-4.671-10.433-10.433v-24.854h31.678v24.854c0 5.762-4.672 10.433-10.434 10.433z" fill="#90bac4"/></g></g><g><g><g><g><g><path d="m404.317 96.035v353.645h-296.634v-353.645c0-3.573 1.838-6.888 4.874-8.777l137.99-85.708c3.346-2.065 7.559-2.065 10.905 0l137.99 85.708c3.026 1.889 4.875 5.204 4.875 8.777z" fill="#eaf9fa"/></g><g><path d="m404.317 96.035v353.645h-30.752v-337.836c0-3.573-1.848-6.888-4.874-8.777l-137.99-85.708c-1.074-.661-2.241-1.115-3.439-1.353l23.286-14.457c3.346-2.065 7.559-2.065 10.905 0l137.99 85.708c3.025 1.89 4.874 5.205 4.874 8.778z" fill="#cbe5e7"/></g><path d="m404.317 308.643v52.602c-7.879 6.258-16.026 11.349-24.133 15.51-17.317 8.87-34.459 13.466-48.441 15.799-6.526.558-11.545 6.02-11.545 12.567v44.558h-128.397v-45.033c0-6.351-4.719-11.71-11.018-12.515l-.516-.072c-20.973-3.852-48.244-12.774-72.584-33.086v-51.931c2.788 1.291 5.297 3.284 7.239 5.855 14.891 19.692 35.585 33.189 61.493 40.118 13.104 3.501 24.412 4.399 30.783 4.585 0 0 99.36.021 99.628.021 6.206-.134 17.906-.95 31.557-4.605 25.909-6.929 46.603-20.425 61.493-40.118 1.271-1.674 2.778-3.109 4.441-4.255z" fill="#cbe5e7"/><path d="m399.877 312.897c-10.286 13.603-23.357 24.231-38.989 31.797v40.341c6.303-2.231 12.784-4.944 19.297-8.28 8.106-4.162 16.254-9.252 24.133-15.51v-52.602c-1.664 1.146-3.171 2.581-4.441 4.254z" fill="#a9d3d8"/><g><path d="m181.419 82.087 71.863-44.634c1.664-1.034 3.771-1.034 5.435 0l71.862 44.634c4.403 2.734 2.465 9.527-2.718 9.527h-143.725c-5.182 0-7.12-6.792-2.717-9.527z" fill="#a8e7ef"/></g><g><path d="m373.565 129.987v319.694h-235.13v-319.694c0-2.845 2.306-5.151 5.151-5.151h224.828c2.845 0 5.151 2.306 5.151 5.151z" fill="#fb6a3b"/><path d="m373.565 129.987v319.694h-235.13v-47.016c169.837-31.898 194.465-204.327 197.15-277.829h32.829c2.845 0 5.151 2.306 5.151 5.151z" fill="#fb5532"/></g></g><g><g><path d="m429.71 309.754c-14.701 19.501-32.204 32.667-49.521 41.547s-34.46 13.464-48.449 15.803c-6.521.567-11.538 6.027-11.538 12.568v25.909h-128.403v-26.383c0-6.346-4.718-11.713-11.013-12.517l-.525-.072c-27.825-5.11-66.735-19.13-95.168-56.856-7.222-9.57-3.801-23.849 8.262-28.66 7.747-3.091 16.534-.299 21.572 6.356 14.886 19.697 35.572 33.192 61.492 40.115 13.094 3.503 24.405 4.399 30.782 4.584 0 0 99.361.021 99.619.021 6.212-.134 17.915-.948 31.565-4.605 25.909-6.923 46.595-20.418 61.492-40.115 5.027-6.655 13.815-9.447 21.562-6.356 12.062 4.813 15.482 19.091 8.271 28.661z" fill="#bcea73"/><path d="m429.71 309.754c-14.701 19.501-32.204 32.667-49.521 41.547-17.317 8.87-34.46 13.464-48.449 15.813-6.521.556-11.538 6.016-11.538 12.558v25.909h-23.22v-39.219c0-6.542 5.027-12.002 11.548-12.568 13.98-2.339 33.759-6.923 53.703-15.803 19.965-8.88 40.095-22.046 54.795-41.547 3.534-4.687 4.523-10.508 3.183-15.782.412.124.824.268 1.226.433 12.074 4.811 15.494 19.089 8.273 28.659z" fill="#a3e440"/><g><path d="m191.797 395.275h128.406v54.722h-128.406z" fill="#a8e7ef"/><path d="m296.985 395.275h23.214v54.72h-23.214z" fill="#70d9e6"/></g><path d="m425.89 479.911h-339.782c-5.762 0-10.433-4.671-10.433-10.433v-19.353c0-5.762 4.671-10.433 10.433-10.433h339.782c5.762 0 10.433 4.671 10.433 10.433v19.353c0 5.762-4.671 10.433-10.433 10.433z" fill="#eaf9fa"/><path d="m436.325 450.125v19.352c0 5.762-4.678 10.44-10.44 10.44h-31.433c5.762 0 10.44-4.678 10.44-10.44v-19.352c0-5.762-4.678-10.43-10.44-10.43h31.433c5.763 0 10.44 4.668 10.44 10.43z" fill="#cbe5e7"/></g></g></g></g></g></g><g><ellipse cx="258.318" cy="316.657" fill="#ffcec0" rx="42.327" ry="44.497"/><path d="m300.648 316.655c0 24.58-18.955 44.494-42.33 44.494-6.954 0-13.516-1.762-19.306-4.883 20.356-3.225 35.964-21.696 35.964-43.999 0-17.256-9.344-32.214-23.004-39.6 2.071-.34 4.193-.505 6.346-.505 23.375 0 42.33 19.923 42.33 44.493z" fill="#fdb0a0"/></g><g><g><path d="m418.837 280.659h-325.674c-5.69 0-10.302-4.612-10.302-10.302v-82.819c0-5.69 4.612-10.302 10.302-10.302h325.674c5.69 0 10.302 4.612 10.302 10.302v82.819c0 5.689-4.612 10.302-10.302 10.302z" fill="#fcb44d"/><path d="m429.143 187.533v82.827c0 5.687-4.615 10.302-10.302 10.302h-29.401c5.687 0 10.302-4.615 10.302-10.302v-82.827c0-5.687-4.615-10.302-10.302-10.302h29.401c5.687.001 10.302 4.616 10.302 10.302z" fill="#fca62f"/></g><circle cx="91.216" cy="291.645" fill="#ffcec0" r="25.012"/><path d="m116.225 291.644c0 13.815-11.198 25.013-25.013 25.013-6.542 0-12.506-2.514-16.957-6.634 13.804-.021 24.982-11.208 24.982-25.013 0-7.263-3.101-13.815-8.046-18.378h.021c13.815-.001 25.013 11.197 25.013 25.012z" fill="#fdb0a0"/></g><g><circle cx="420.784" cy="291.645" fill="#ffcec0" r="25.012"/><path d="m445.791 291.644c0 13.815-11.198 25.013-25.003 25.013-6.542 0-12.506-2.514-16.967-6.634 13.794-.01 24.982-11.208 24.982-25.013 0-7.263-3.101-13.815-8.046-18.378h.031c13.805-.001 25.003 11.197 25.003 25.012z" fill="#fdb0a0"/></g><g fill="#fb5532"><path d="m153.288 202.951h-22.532c-4.267 0-7.726 3.459-7.726 7.726 0 4.268 3.459 7.726 7.726 7.726h3.54v28.814c0 4.268 3.459 7.726 7.726 7.726s7.726-3.459 7.726-7.726v-28.814h3.54c4.267 0 7.726-3.459 7.726-7.726s-3.459-7.726-7.726-7.726z"/><path d="m198.88 202.951c-4.267 0-7.726 3.459-7.726 7.726v10.544h-7.08v-10.544c0-4.268-3.459-7.726-7.726-7.726s-7.726 3.459-7.726 7.726v36.54c0 4.268 3.459 7.726 7.726 7.726s7.726-3.459 7.726-7.726v-10.543h7.08v10.543c0 4.268 3.459 7.726 7.726 7.726s7.726-3.459 7.726-7.726v-36.54c0-4.267-3.459-7.726-7.726-7.726z"/><path d="m233.204 202.951c-10.472 0-18.993 8.52-18.993 18.993v25.274c0 4.268 3.459 7.726 7.726 7.726s7.726-3.459 7.726-7.726v-7.658h7.08v7.658c0 4.268 3.459 7.726 7.726 7.726s7.726-3.459 7.726-7.726v-25.274c.002-10.473-8.518-18.993-18.991-18.993zm-3.54 21.156v-2.163c0-1.952 1.588-3.54 3.54-3.54s3.54 1.589 3.54 3.54v2.163z"/><path d="m283.485 251.273c1.365 2.183 3.812 3.671 6.576 3.671 4.267 0 7.726-3.459 7.726-7.726v-36.54c0-4.268-3.459-7.726-7.726-7.726s-7.726 3.459-7.726 7.726v9.291s-8.257-13.378-8.269-13.395c-1.367-2.173-3.781-3.622-6.538-3.622-4.267 0-7.726 3.459-7.726 7.726v36.54c0 4.268 3.459 7.726 7.726 7.726s7.726-3.459 7.726-7.726v-9.291z"/><path d="m341.655 205.811c-2.688-3.314-7.554-3.822-10.868-1.135l-9.94 8.06v-2.059c0-4.268-3.459-7.726-7.726-7.726s-7.726 3.459-7.726 7.726v36.54c0 4.268 3.459 7.726 7.726 7.726s7.726-3.459 7.726-7.726v-2.058l9.94 8.06c1.432 1.16 3.152 1.724 4.862 1.724 2.249 0 4.479-.977 6.006-2.86 2.688-3.315 2.179-8.18-1.135-10.868l-15.131-12.268 15.131-12.269c3.314-2.687 3.822-7.552 1.135-10.867z"/><path d="m372.109 221.222h-4.263c-.777 0-1.408-.632-1.408-1.409s.632-1.408 1.408-1.408h13.397c4.267 0 7.726-3.459 7.726-7.726 0-4.268-3.459-7.726-7.726-7.726h-13.397c-9.297 0-16.861 7.563-16.861 16.861s7.564 16.862 16.861 16.862h4.263c.777 0 1.408.632 1.408 1.408s-.632 1.408-1.408 1.408h-13.397c-4.267 0-7.726 3.459-7.726 7.726 0 4.268 3.459 7.726 7.726 7.726h13.397c9.297 0 16.861-7.563 16.861-16.861.001-9.297-7.563-16.861-16.861-16.861z"/></g></g></svg>